<?xml version="1.0" standalone="no"?>
<!DOCTYPE svg PUBLIC "-//W3C//DTD SVG 20010904//EN"
 "http://www.w3.org/TR/2001/REC-SVG-20010904/DTD/svg10.dtd">
<svg version="1.0" xmlns="http://www.w3.org/2000/svg"
 width="380.000000pt" height="380.000000pt" viewBox="0 0 380.000000 380.000000"
 preserveAspectRatio="xMidYMid meet">
<metadata>
Created by potrace 1.14, written by Peter Selinger 2001-2017
</metadata>
<g transform="translate(0.000000,380.000000) scale(0.100000,-0.100000)"
fill="#000000" stroke="none">
<path d="M1978 3796 c-1 -2 -28 -6 -58 -10 -112 -12 -148 -18 -264 -47 -791
-197 -1382 -891 -1453 -1704 -42 -485 95 -960 387 -1345 40 -52 95 -119 123
-148 l52 -52 162 162 162 162 48 -45 c200 -186 437 -300 833 -402 118 -31 285
-70 345 -81 11 -2 76 -16 145 -30 69 -14 134 -28 145 -30 11 -3 43 -10 70 -16
28 -6 59 -14 71 -16 11 -2 140 -33 285 -68 500 -122 493 -121 486 -109 -3 4
-8 44 -11 87 -4 44 -8 82 -10 85 -2 3 -7 38 -11 76 -12 110 -12 116 -24 200
-6 44 -13 105 -16 135 -3 30 -8 62 -10 70 -2 8 -6 46 -10 83 -3 37 -8 78 -11
90 -2 12 -6 45 -9 72 -2 28 -7 73 -11 102 -6 49 -3 58 49 160 69 135 109 249
141 398 20 98 24 143 24 287 0 94 -4 185 -9 202 -4 17 -10 47 -12 66 -28 216
-166 502 -336 696 l-69 79 161 162 161 162 -20 22 c-39 45 -195 169 -292 233
-87 57 -230 133 -328 173 -76 32 -247 85 -319 99 -11 2 -31 6 -45 9 -91 19
-187 28 -342 30 -97 2 -178 2 -180 1z m352 -471 c215 -29 438 -114 620 -236
81 -55 212 -161 218 -178 1 -4 -52 -62 -119 -129 l-122 -121 -50 45 c-265 238
-662 335 -1012 248 -432 -108 -739 -434 -841 -894 -13 -59 -16 -284 -5 -358
34 -216 133 -432 268 -582 53 -59 65 -36 -96 -197 l-105 -104 -39 43 c-201
219 -336 510 -377 809 -12 85 -16 279 -6 334 2 17 7 52 11 79 21 169 112 411
211 566 228 354 601 602 1002 666 130 21 324 25 442 9z m-11 -464 c326 -65
600 -279 738 -577 58 -127 85 -249 87 -394 0 -69 -2 -148 -6 -176 -18 -142
-90 -318 -182 -448 -51 -70 -51 -71 -44 -126 4 -30 12 -95 18 -143 6 -49 12
-103 15 -120 4 -31 7 -56 21 -177 3 -30 8 -58 10 -62 11 -18 -24 -16 -123 6
-85 19 -529 116 -603 131 -177 36 -460 124 -561 175 -354 175 -575 528 -570
912 2 221 53 383 180 578 46 71 189 214 264 263 120 80 298 148 422 163 28 4
51 8 53 9 8 7 233 -5 281 -14z"/>
<path d="M1529 2020 c-147 -26 -183 -224 -53 -297 107 -61 238 15 237 137 -1
50 -19 94 -50 122 -29 27 -94 45 -134 38z"/>
<path d="M2054 2001 c-73 -44 -100 -127 -66 -203 52 -119 214 -131 279 -21 50
86 23 185 -64 232 -34 18 -114 13 -149 -8z"/>
<path d="M2634 2001 c-54 -33 -79 -78 -79 -142 2 -210 314 -208 317 2 1 119
-138 201 -238 140z"/>
</g>
</svg>
